<?xml version="1.0" encoding="UTF-8" standalone="no"?>
<!-- Generator: Adobe Illustrator 27.5.0, SVG Export Plug-In . SVG Version: 6.00 Build 0)  -->

<svg
   version="1.1"
   x="0px"
   y="0px"
   viewBox="0 0 1000 1000"
   xml:space="preserve"
   id="svg20"
   sodipodi:docname="frame-3d-no-data-optimized.svg"
   inkscape:version="1.4 (86a8ad7, 2024-10-11)"
   width="1000"
   height="1000"
   inkscape:export-filename="frame-3d-no-data-optimized.png"
   inkscape:export-xdpi="96"
   inkscape:export-ydpi="96"
   xmlns:inkscape="http://www.inkscape.org/namespaces/inkscape"
   xmlns:sodipodi="http://sodipodi.sourceforge.net/DTD/sodipodi-0.dtd"
   xmlns="http://www.w3.org/2000/svg"
   xmlns:svg="http://www.w3.org/2000/svg"><defs
   id="defs20"><inkscape:path-effect
     effect="fillet_chamfer"
     id="path-effect5"
     is_visible="true"
     lpeversion="1"
     nodesatellites_param="F,0,0,1,0,3,0,1 @ F,0,0,1,0,3,0,1 @ F,0,0,1,0,3,0,1 @ F,0,0,1,0,3,0,1"
     radius="0"
     unit="px"
     method="auto"
     mode="F"
     chamfer_steps="1"
     flexible="false"
     use_knot_distance="true"
     apply_no_radius="true"
     apply_with_radius="true"
     only_selected="false"
     hide_knots="false" /><inkscape:path-effect
     effect="fillet_chamfer"
     id="path-effect4"
     is_visible="true"
     lpeversion="1"
     nodesatellites_param="F,0,0,1,0,0,0,1 @ F,0,0,1,0,0,0,1 @ F,0,0,1,0,0,0,1 @ F,0,0,1,0,0,0,1"
     radius="0"
     unit="px"
     method="auto"
     mode="F"
     chamfer_steps="1"
     flexible="false"
     use_knot_distance="true"
     apply_no_radius="true"
     apply_with_radius="true"
     only_selected="false"
     hide_knots="false" /><inkscape:path-effect
     effect="fillet_chamfer"
     id="path-effect1"
     is_visible="true"
     lpeversion="1"
     nodesatellites_param="F,0,0,1,0,5,0,1 @ F,0,0,1,0,0,0,1 @ F,0,0,1,0,0,0,1 @ F,0,0,1,0,0,0,1 @ F,0,0,1,0,0,0,1 @ F,0,0,1,0,0,0,1 @ F,0,0,1,0,0,0,1 @ F,0,0,1,0,0,0,1"
     radius="0"
     unit="px"
     method="auto"
     mode="F"
     chamfer_steps="1"
     flexible="false"
     use_knot_distance="true"
     apply_no_radius="true"
     apply_with_radius="true"
     only_selected="false"
     hide_knots="false" /><inkscape:path-effect
     effect="fillet_chamfer"
     id="path-effect10"
     is_visible="true"
     lpeversion="1"
     nodesatellites_param="F,0,0,1,0,0,0,1 @ F,0,0,1,0,0,0,1"
     radius="0"
     unit="px"
     method="auto"
     mode="F"
     chamfer_steps="1"
     flexible="false"
     use_knot_distance="true"
     apply_no_radius="true"
     apply_with_radius="true"
     only_selected="false"
     hide_knots="false" /><inkscape:path-effect
     effect="fillet_chamfer"
     id="path-effect9"
     is_visible="true"
     lpeversion="1"
     nodesatellites_param="F,0,0,1,0,0,0,1 @ F,0,0,1,0,0,0,1"
     radius="0"
     unit="px"
     method="auto"
     mode="F"
     chamfer_steps="1"
     flexible="false"
     use_knot_distance="true"
     apply_no_radius="true"
     apply_with_radius="true"
     only_selected="false"
     hide_knots="false" /><inkscape:path-effect
     effect="fillet_chamfer"
     id="path-effect8"
     is_visible="true"
     lpeversion="1"
     nodesatellites_param=""
     radius="0"
     unit="px"
     method="auto"
     mode="F"
     chamfer_steps="1"
     flexible="false"
     use_knot_distance="true"
     apply_no_radius="true"
     apply_with_radius="true"
     only_selected="false"
     hide_knots="false" /><inkscape:path-effect
     effect="fillet_chamfer"
     id="path-effect7"
     is_visible="true"
     lpeversion="1"
     nodesatellites_param="F,0,0,1,0,0,0,1 @ F,0,0,1,0,0,0,1"
     radius="0"
     unit="px"
     method="auto"
     mode="F"
     chamfer_steps="1"
     flexible="false"
     use_knot_distance="true"
     apply_no_radius="true"
     apply_with_radius="true"
     only_selected="false"
     hide_knots="false" /><inkscape:path-effect
     effect="powerstroke"
     id="path-effect3"
     is_visible="true"
     lpeversion="1.3"
     scale_width="1"
     interpolator_type="CentripetalCatmullRom"
     interpolator_beta="0.75"
     start_linecap_type="round"
     end_linecap_type="round"
     offset_points="5.4160246,0.054460576"
     linejoin_type="spiro"
     miter_limit="4"
     not_jump="true"
     sort_points="true"
     message="" /><inkscape:path-effect
     effect="simplify"
     id="path-effect2"
     is_visible="true"
     lpeversion="1.3"
     threshold="0.012"
     steps="1"
     smooth_angles="0"
     helper_size="0"
     simplify_individual_paths="false"
     simplify_just_coalesce="false"
     step="1" /><rect
     x="55.712746"
     y="37.873688"
     width="158.60915"
     height="35.281143"
     id="rect3" /><rect
     x="80.412979"
     y="43.911522"
     width="131.73457"
     height="59.280556"
     id="rect1" /><rect
     x="55.712746"
     y="37.873688"
     width="194.28726"
     height="78.369324"
     id="rect3-0" /><rect
     x="55.712746"
     y="37.873688"
     width="158.60915"
     height="35.281143"
     id="rect3-7" /><rect
     x="55.712746"
     y="37.873688"
     width="158.60915"
     height="35.281143"
     id="rect3-4" /><rect
     x="55.712746"
     y="37.873688"
     width="158.60915"
     height="35.281143"
     id="rect3-7-4" /></defs><sodipodi:namedview
   id="namedview20"
   pagecolor="#ffffff"
   bordercolor="#000000"
   borderopacity="0.25"
   inkscape:showpageshadow="false"
   inkscape:pageopacity="0.0"
   inkscape:pagecheckerboard="true"
   inkscape:deskcolor="#d1d1d1"
   inkscape:zoom="0.46321166"
   inkscape:cx="390.7501"
   inkscape:cy="438.24458"
   inkscape:window-width="1713"
   inkscape:window-height="1360"
   inkscape:window-x="-3"
   inkscape:window-y="0"
   inkscape:window-maximized="0"
   inkscape:current-layer="g3-0"
   borderlayer="true"
   showborder="true" />

<g
   id="Shadow"
   style="display:inline"
   transform="translate(-50.375509,29.004087)">
	<g
   id="XMLID_64_"
   style="opacity:0.46">
	</g>
	<path
   id="polygon1"
   style="opacity:0.6;fill:#666666"
   d="m 924.769,692.745 -8.182,36.01 L 582.301,886.48 191.231,701.172 630.911,498.965 Z" />
</g>
<g
   id="Object"
   transform="translate(-50.375509,29.004087)">
	<g
   id="g20">
		<g
   id="g19">
			<g
   id="g6">
				<g
   style="enable-background:new"
   id="g5">
					<g
   id="g2">
						<path
   id="polygon2"
   style="fill:#313131"
   d="m 668.159,786.294 -5.584,4.212 -41.614,-129.706 5.584,-4.212 z" />
					</g>
					<g
   id="g3">
						<path
   id="polygon3"
   style="fill:#252626"
   d="m 499.829,675.937 39.76,-72.422 39.763,-72.425 41.609,129.71 41.614,129.706 -81.373,-57.285 z" />
					</g>
					<g
   id="g4">
						<path
   id="polygon4"
   style="fill:#3f3224"
   d="m 626.545,656.588 -5.584,4.212 -41.609,-129.71 5.585,-4.212 z" />
					</g>
				</g>
			</g>
			<g
   id="g18">
				<path
   id="polygon6"
   style="display:inline;fill:#c69e75"
   d="m 430.823,787.404 87.187,51.807 z" />
				<path
   id="polygon7"
   style="fill:#c69e75"
   d="m 240.095,674.076 v -10e-4 h -0.001 z" />
				<path
   id="polygon8"
   style="fill:#262626"
   d="m 275.456,654.495 -6.116,3.357 236.687,140.638 1.558,-5.14 -232.367,-138.07 z" />
				<path
   id="polygon9"
   style="fill:#7b6348"
   d="m 240.094,674.075 h 0.001 L 303.07,466.339 Z" />
				<path
   id="polygon10"
   style="fill:#333334"
   d="m 269.34,657.852 6.116,-3.357 97.292,-320.905 -4.32,-2.567 z" />
				<path
   id="polygon11"
   style="display:inline;fill:#f2f2f2"
   d="M 507.585,793.35 605.108,471.656 372.748,333.59 275.456,654.495 275.218,655.28 Z" />
				<path
   id="polygon12"
   style="fill:#4d3c28"
   d="m 634.359,455.439 v -0.001 l -32.761,108.063 z" />
				<path
   style="fill:#333334"
   d="M 336.413,222.27 191.231,701.172 538.033,907.239 683.221,428.341 Z m 265.185,341.231 -83.587,275.71 v 0 0 L 430.823,787.405 240.095,674.076 v 0 l -0.001,-10e-4 62.976,-207.736 53.367,-176.042 277.923,165.14 v 10e-4 0.001 z"
   id="path12" />
				<path
   id="polygon13"
   style="fill:#262626"
   d="m 303.07,466.339 -62.975,207.736 v 10e-4 l 29.245,-16.224 99.088,-326.829 -11.991,-40.726 z" />
				<path
   id="polygon14"
   style="display:inline;fill:#3f3f3f"
   d="m 269.34,657.852 -29.245,16.224 190.728,113.328 87.187,51.807 h 10e-4 L 506.027,798.49 Z" />
				<path
   id="polygon15"
   style="display:inline;fill:#3f3f3f"
   d="m 368.428,331.023 4.32,2.567 232.36,138.066 29.252,-16.219 -277.923,-165.14 z" />
				<path
   id="polygon16"
   style="fill:#262626"
   d="m 634.36,455.437 -29.252,16.219 -97.523,321.694 -1.558,5.14 11.984,40.721 83.587,-275.71 32.761,-108.063 z" />
				<path
   id="polygon17"
   style="fill:#1e1e1e"
   d="M 582.301,886.48 723.789,419.785 683.221,428.341 538.033,907.239 Z" />
				<path
   id="polygon18"
   style="fill:#262626"
   inkscape:label="polygon18"
   d="M 336.413,222.27 683.221,428.341 723.789,419.785 376.246,212.761 Z" />
			</g>
		</g>
	</g>
</g><g
   id="g3-0"
   transform="matrix(19.645159,10.339808,-8.8326949,22.997191,257.44481,13.972407)" />
<g
   id="g1"
   transform="translate(-398.77702,805.21159)"><g
     id="freepik--question-marks--inject-204"
     transform="matrix(3.4774874,-2.7327582,2.7327582,3.4774874,-1144.4965,171.08385)"><path
       d="m 404.9,88.82 a 20.89,20.89 0 0 1 5.46,2.05 15.67,15.67 0 0 1 4.34,3.45 12.37,12.37 0 0 1 2.56,4.68 11,11 0 0 1 0.12,5.62 11.35,11.35 0 0 1 -1.72,4.11 13.43,13.43 0 0 1 -2.69,2.83 21.92,21.92 0 0 1 -3.21,2.07 l -3.18,1.68 a 17.43,17.43 0 0 0 -2.72,1.76 5.15,5.15 0 0 0 -1.7,2.27 2.37,2.37 0 0 1 -0.81,1 1.43,1.43 0 0 1 -1.22,0.25 l -4.68,-1 a 1.73,1.73 0 0 1 -1.1,-0.76 1.42,1.42 0 0 1 -0.2,-1.27 11.15,11.15 0 0 1 2,-4 15.74,15.74 0 0 1 2.88,-2.78 22.54,22.54 0 0 1 3.29,-2 c 1.14,-0.57 2.2,-1.12 3.18,-1.66 a 13.89,13.89 0 0 0 2.51,-1.7 4,4 0 0 0 1.33,-2.2 4.77,4.77 0 0 0 -1.12,-4.28 8.58,8.58 0 0 0 -4.91,-2.67 q -5.24,-1.17 -8.86,3.53 a 3.23,3.23 0 0 1 -0.87,0.87 1.57,1.57 0 0 1 -1.21,0.09 l -5,-1.11 a 1.35,1.35 0 0 1 -0.87,-0.58 1.27,1.27 0 0 1 -0.19,-1.07 9.78,9.78 0 0 1 2.3,-4.11 15.48,15.48 0 0 1 4.29,-3.32 18.43,18.43 0 0 1 5.65,-1.88 16.42,16.42 0 0 1 6.35,0.13 z m -5.28,35.54 a 1.63,1.63 0 0 1 1.06,0.76 1.65,1.65 0 0 1 0.23,1.28 l -1.2,5.42 a 1.71,1.71 0 0 1 -2,1.29 l -5.3,-1.17 a 1.65,1.65 0 0 1 -1.06,-0.75 1.62,1.62 0 0 1 -0.23,-1.28 l 1.2,-5.43 a 1.71,1.71 0 0 1 2,-1.29 z"
       style="fill:#8b5cf6"
       id="path44" /><path
       d="m 436.49794,90.269788 a 14,14 0 0 1 4,-0.08 10.81,10.81 0 0 1 3.67,1.1 8.54,8.54 0 0 1 2.82,2.32 7.5,7.5 0 0 1 1.51,3.57 7.65,7.65 0 0 1 0,3.070002 9.21,9.21 0 0 1 -1,2.51 15.59,15.59 0 0 1 -1.52,2.14 l -1.61,1.9 a 13.05,13.05 0 0 0 -1.3,1.82 3.58,3.58 0 0 0 -0.5,1.89 1.65,1.65 0 0 1 -0.26,0.88 1,1 0 0 1 -0.71,0.47 l -3.27,0.54 a 1.23,1.23 0 0 1 -0.9,-0.21 1,1 0 0 1 -0.45,-0.76 7.44,7.44 0 0 1 0.23,-3.06 10.16,10.16 0 0 1 1.13,-2.53 15.53,15.53 0 0 1 1.59,-2.13 c 0.59,-0.66 1.12,-1.28 1.62,-1.88 a 9.77,9.77 0 0 0 1.17,-1.73 2.76,2.76 0 0 0 0.29,-1.750002 3.29,3.29 0 0 0 -1.82,-2.46 5.86,5.86 0 0 0 -3.82,-0.46 5.73,5.73 0 0 0 -4.78,4.53 2.34,2.34 0 0 1 -0.34,0.790002 1.11,1.11 0 0 1 -0.75,0.36 l -3.48,0.57 a 1,1 0 0 1 -0.71,-0.15 0.89,0.89 0 0 1 -0.4,-0.64 6.75,6.75 0 0 1 0.43,-3.220002 10.48,10.48 0 0 1 1.9,-3.23 12.79,12.79 0 0 1 3.14,-2.65 11.38,11.38 0 0 1 4.12,-1.52 z m 5.71,24.190002 a 1.16,1.16 0 0 1 0.88,0.21 1.15,1.15 0 0 1 0.47,0.76 l 0.62,3.78 a 1.16,1.16 0 0 1 -0.21,0.88 1.12,1.12 0 0 1 -0.76,0.47 l -3.7,0.61 a 1.15,1.15 0 0 1 -0.87,-0.21 1.12,1.12 0 0 1 -0.48,-0.76 l -0.62,-3.79 a 1.19,1.19 0 0 1 1,-1.35 z"
       style="fill:#8b5cf6"
       id="path45" /><g
       style="opacity:0.2"
       id="g46"
       transform="translate(15.877938,-49.540212)"><path
         d="m 420.62,139.81 a 14,14 0 0 1 4,-0.08 10.81,10.81 0 0 1 3.67,1.1 8.54,8.54 0 0 1 2.82,2.32 7.5,7.5 0 0 1 1.51,3.57 7.65,7.65 0 0 1 0,3.07 9.21,9.21 0 0 1 -1,2.51 15.59,15.59 0 0 1 -1.52,2.14 l -1.61,1.9 a 13.05,13.05 0 0 0 -1.3,1.82 3.58,3.58 0 0 0 -0.5,1.89 1.65,1.65 0 0 1 -0.26,0.88 1,1 0 0 1 -0.71,0.47 l -3.27,0.54 a 1.23,1.23 0 0 1 -0.9,-0.21 1,1 0 0 1 -0.45,-0.76 7.44,7.44 0 0 1 0.23,-3.06 10.16,10.16 0 0 1 1.13,-2.53 15.53,15.53 0 0 1 1.59,-2.13 c 0.59,-0.66 1.12,-1.28 1.62,-1.88 a 9.77,9.77 0 0 0 1.17,-1.73 2.76,2.76 0 0 0 0.29,-1.75 3.29,3.29 0 0 0 -1.82,-2.46 5.86,5.86 0 0 0 -3.82,-0.46 5.73,5.73 0 0 0 -4.78,4.53 2.34,2.34 0 0 1 -0.34,0.79 1.11,1.11 0 0 1 -0.75,0.36 l -3.48,0.57 a 1,1 0 0 1 -0.71,-0.15 0.89,0.89 0 0 1 -0.4,-0.64 6.75,6.75 0 0 1 0.43,-3.22 10.48,10.48 0 0 1 1.9,-3.23 12.79,12.79 0 0 1 3.14,-2.65 11.38,11.38 0 0 1 4.12,-1.52 z m 5.71,24.19 a 1.16,1.16 0 0 1 0.88,0.21 1.15,1.15 0 0 1 0.47,0.76 l 0.62,3.78 a 1.16,1.16 0 0 1 -0.21,0.88 1.12,1.12 0 0 1 -0.76,0.47 l -3.7,0.61 a 1.15,1.15 0 0 1 -0.87,-0.21 1.12,1.12 0 0 1 -0.48,-0.76 l -0.62,-3.79 a 1.19,1.19 0 0 1 1,-1.35 z"
         id="path46" /></g><path
       d="m 454.72,150.54 a 1.41,1.41 0 0 1 0.33,1.94 l -2.64,3.7 a 1.41,1.41 0 0 1 -1.94,0.33 l -3.62,-2.57 a 1.35,1.35 0 0 1 -0.56,-0.9 1.4,1.4 0 0 1 0.23,-1 l 2.64,-3.71 a 1.39,1.39 0 0 1 0.9,-0.56 1.37,1.37 0 0 1 1,0.24 z M 470,125.45 a 16.58,16.58 0 0 1 3.46,3.28 12.85,12.85 0 0 1 2.17,4 10.15,10.15 0 0 1 0.45,4.31 9,9 0 0 1 -1.7,4.27 9.33,9.33 0 0 1 -2.6,2.55 10.87,10.87 0 0 1 -2.94,1.27 18,18 0 0 1 -3.07,0.54 l -2.94,0.25 a 15.81,15.81 0 0 0 -2.6,0.46 4.28,4.28 0 0 0 -2,1.18 2.11,2.11 0 0 1 -0.94,0.53 1.2,1.2 0 0 1 -1,-0.21 l -3.2,-2.27 a 1.45,1.45 0 0 1 -0.58,-0.92 1.16,1.16 0 0 1 0.25,-1 9,9 0 0 1 2.75,-2.39 12.32,12.32 0 0 1 3.06,-1.18 18.7,18.7 0 0 1 3.12,-0.48 c 1,-0.06 2,-0.14 2.92,-0.23 a 11,11 0 0 0 2.43,-0.49 3.23,3.23 0 0 0 1.7,-1.23 3.87,3.87 0 0 0 0.52,-3.58 7,7 0 0 0 -2.84,-3.57 q -3.57,-2.55 -7.8,-0.17 a 2.8,2.8 0 0 1 -0.93,0.38 1.3,1.3 0 0 1 -0.95,-0.32 l -3.4,-2.42 a 1.15,1.15 0 0 1 -0.48,-0.72 1.06,1.06 0 0 1 0.21,-0.86 7.93,7.93 0 0 1 3,-2.37 12.69,12.69 0 0 1 4.29,-1.13 15.31,15.31 0 0 1 4.85,0.38 13.32,13.32 0 0 1 4.79,2.14 z"
       style="fill:#8b5cf6"
       id="path47" /><g
       style="opacity:0.6"
       id="g48"><path
         d="m 454.72,150.54 a 1.41,1.41 0 0 1 0.33,1.94 l -2.64,3.7 a 1.41,1.41 0 0 1 -1.94,0.33 l -3.62,-2.57 a 1.35,1.35 0 0 1 -0.56,-0.9 1.4,1.4 0 0 1 0.23,-1 l 2.64,-3.71 a 1.39,1.39 0 0 1 0.9,-0.56 1.37,1.37 0 0 1 1,0.24 z M 470,125.45 a 16.58,16.58 0 0 1 3.46,3.28 12.85,12.85 0 0 1 2.17,4 10.15,10.15 0 0 1 0.45,4.31 9,9 0 0 1 -1.7,4.27 9.33,9.33 0 0 1 -2.6,2.55 10.87,10.87 0 0 1 -2.94,1.27 18,18 0 0 1 -3.07,0.54 l -2.94,0.25 a 15.81,15.81 0 0 0 -2.6,0.46 4.28,4.28 0 0 0 -2,1.18 2.11,2.11 0 0 1 -0.94,0.53 1.2,1.2 0 0 1 -1,-0.21 l -3.2,-2.27 a 1.45,1.45 0 0 1 -0.58,-0.92 1.16,1.16 0 0 1 0.25,-1 9,9 0 0 1 2.75,-2.39 12.32,12.32 0 0 1 3.06,-1.18 18.7,18.7 0 0 1 3.12,-0.48 c 1,-0.06 2,-0.14 2.92,-0.23 a 11,11 0 0 0 2.43,-0.49 3.23,3.23 0 0 0 1.7,-1.23 3.87,3.87 0 0 0 0.52,-3.58 7,7 0 0 0 -2.84,-3.57 q -3.57,-2.55 -7.8,-0.17 a 2.8,2.8 0 0 1 -0.93,0.38 1.3,1.3 0 0 1 -0.95,-0.32 l -3.4,-2.42 a 1.15,1.15 0 0 1 -0.48,-0.72 1.06,1.06 0 0 1 0.21,-0.86 7.93,7.93 0 0 1 3,-2.37 12.69,12.69 0 0 1 4.29,-1.13 15.31,15.31 0 0 1 4.85,0.38 13.32,13.32 0 0 1 4.79,2.14 z"
         style="fill:#ffffff"
         id="path48" /></g></g><g
     id="g94"
     transform="matrix(0.83534224,4.3516841,-4.3516841,0.83534224,1652.1847,-908.50541)"><path
       d="m 88.43,90.63 a 20.33,20.33 0 0 1 5.82,-0.26 15.58,15.58 0 0 1 5.35,1.46 12.31,12.31 0 0 1 4.18,3.26 11,11 0 0 1 2.32,5.11 11.17,11.17 0 0 1 0,4.46 13.16,13.16 0 0 1 -1.36,3.66 21.32,21.32 0 0 1 -2.13,3.16 c -0.8,1 -1.56,1.92 -2.27,2.81 a 18,18 0 0 0 -1.8,2.68 5.17,5.17 0 0 0 -0.67,2.76 2.52,2.52 0 0 1 -0.33,1.28 1.45,1.45 0 0 1 -1,0.71 l -4.71,0.89 a 1.7,1.7 0 0 1 -1.3,-0.27 1.38,1.38 0 0 1 -0.69,-1.09 11,11 0 0 1 0.22,-4.44 15.55,15.55 0 0 1 1.55,-3.69 22,22 0 0 1 2.23,-3.12 c 0.83,-1 1.58,-1.9 2.27,-2.78 a 14.49,14.49 0 0 0 1.64,-2.55 4,4 0 0 0 0.35,-2.54 4.74,4.74 0 0 0 -2.71,-3.5 8.58,8.58 0 0 0 -5.56,-0.53 q -5.26,1 -6.75,6.74 a 3.63,3.63 0 0 1 -0.46,1.14 1.64,1.64 0 0 1 -1.09,0.56 l -5,0.95 a 1.43,1.43 0 0 1 -1,-0.19 1.35,1.35 0 0 1 -0.59,-0.92 9.8,9.8 0 0 1 0.5,-4.68 15.46,15.46 0 0 1 2.56,-4.77 18.85,18.85 0 0 1 4.46,-4 16.58,16.58 0 0 1 5.97,-2.3 z m 9.13,34.75 a 1.74,1.74 0 0 1 2,1.36 l 1,5.46 a 1.61,1.61 0 0 1 -0.27,1.27 1.67,1.67 0 0 1 -1.08,0.72 l -5.33,1 a 1.63,1.63 0 0 1 -1.28,-0.27 1.67,1.67 0 0 1 -0.72,-1.08 l -1,-5.46 a 1.65,1.65 0 0 1 0.28,-1.27 1.6,1.6 0 0 1 1.08,-0.72 z"
       style="fill:#8b5cf6"
       id="path89" /><path
       d="m 139.25,113.16 a 13.91,13.91 0 0 1 3.2,2.44 10.49,10.49 0 0 1 2.19,3.14 8.59,8.59 0 0 1 0.77,3.57 7.52,7.52 0 0 1 -1,3.74 8,8 0 0 1 -1.95,2.38 9.33,9.33 0 0 1 -2.35,1.33 15,15 0 0 1 -2.53,0.74 l -2.44,0.48 a 11.59,11.59 0 0 0 -2.14,0.63 3.52,3.52 0 0 0 -1.57,1.16 1.7,1.7 0 0 1 -0.75,0.53 1,1 0 0 1 -0.85,-0.07 l -2.89,-1.62 a 1.21,1.21 0 0 1 -0.58,-0.72 1,1 0 0 1 0.12,-0.88 7.56,7.56 0 0 1 2.08,-2.25 10.7,10.7 0 0 1 2.46,-1.28 16,16 0 0 1 2.57,-0.68 c 0.87,-0.15 1.68,-0.3 2.44,-0.46 a 10.59,10.59 0 0 0 2,-0.63 2.84,2.84 0 0 0 1.32,-1.19 3.3,3.3 0 0 0 0.1,-3.06 5.9,5.9 0 0 0 -2.71,-2.74 5.73,5.73 0 0 0 -6.56,0.58 2.36,2.36 0 0 1 -0.75,0.41 1.13,1.13 0 0 1 -0.82,-0.18 l -3.08,-1.72 a 1,1 0 0 1 -0.46,-0.56 0.92,0.92 0 0 1 0.09,-0.75 6.83,6.83 0 0 1 2.33,-2.26 10.62,10.62 0 0 1 3.5,-1.34 12.75,12.75 0 0 1 4.11,-0.13 11.45,11.45 0 0 1 4.15,1.39 z m -10.54,22.45 a 1.17,1.17 0 0 1 0.56,0.71 1.14,1.14 0 0 1 -0.1,0.89 l -1.87,3.35 a 1.18,1.18 0 0 1 -1.6,0.46 l -3.27,-1.83 a 1.07,1.07 0 0 1 -0.55,-0.71 1.11,1.11 0 0 1 0.09,-0.89 l 1.87,-3.35 a 1.16,1.16 0 0 1 0.71,-0.55 1.1,1.1 0 0 1 0.89,0.1 z"
       style="fill:#8b5cf6"
       id="path90" /><g
       style="opacity:0.2"
       id="g91"><path
         d="m 139.25,113.16 a 13.91,13.91 0 0 1 3.2,2.44 10.49,10.49 0 0 1 2.19,3.14 8.59,8.59 0 0 1 0.77,3.57 7.52,7.52 0 0 1 -1,3.74 8,8 0 0 1 -1.95,2.38 9.33,9.33 0 0 1 -2.35,1.33 15,15 0 0 1 -2.53,0.74 l -2.44,0.48 a 11.59,11.59 0 0 0 -2.14,0.63 3.52,3.52 0 0 0 -1.57,1.16 1.7,1.7 0 0 1 -0.75,0.53 1,1 0 0 1 -0.85,-0.07 l -2.89,-1.62 a 1.21,1.21 0 0 1 -0.58,-0.72 1,1 0 0 1 0.12,-0.88 7.56,7.56 0 0 1 2.08,-2.25 10.7,10.7 0 0 1 2.46,-1.28 16,16 0 0 1 2.57,-0.68 c 0.87,-0.15 1.68,-0.3 2.44,-0.46 a 10.59,10.59 0 0 0 2,-0.63 2.84,2.84 0 0 0 1.32,-1.19 3.3,3.3 0 0 0 0.1,-3.06 5.9,5.9 0 0 0 -2.71,-2.74 5.73,5.73 0 0 0 -6.56,0.58 2.36,2.36 0 0 1 -0.75,0.41 1.13,1.13 0 0 1 -0.82,-0.18 l -3.08,-1.72 a 1,1 0 0 1 -0.46,-0.56 0.92,0.92 0 0 1 0.09,-0.75 6.83,6.83 0 0 1 2.33,-2.26 10.62,10.62 0 0 1 3.5,-1.34 12.75,12.75 0 0 1 4.11,-0.13 11.45,11.45 0 0 1 4.15,1.39 z m -10.54,22.45 a 1.17,1.17 0 0 1 0.56,0.71 1.14,1.14 0 0 1 -0.1,0.89 l -1.87,3.35 a 1.18,1.18 0 0 1 -1.6,0.46 l -3.27,-1.83 a 1.07,1.07 0 0 1 -0.55,-0.71 1.11,1.11 0 0 1 0.09,-0.89 l 1.87,-3.35 a 1.16,1.16 0 0 1 0.71,-0.55 1.1,1.1 0 0 1 0.89,0.1 z"
         id="path91" /></g><path
       d="m 68.81,149.88 a 1.36,1.36 0 0 1 1,-0.37 1.4,1.4 0 0 1 1,0.44 l 3.08,3.34 a 1.41,1.41 0 0 1 -0.08,2 l -3.26,3 a 1.41,1.41 0 0 1 -2,-0.08 l -3.08,-3.34 a 1.4,1.4 0 0 1 0.08,-2 z m -21.4,-20.15 a 16.73,16.73 0 0 1 3.92,-2.73 12.87,12.87 0 0 1 4.34,-1.3 10.31,10.31 0 0 1 4.31,0.44 9,9 0 0 1 3.83,2.55 9.22,9.22 0 0 1 2,3.07 10.84,10.84 0 0 1 0.64,3.13 18,18 0 0 1 -0.1,3.12 c -0.13,1 -0.25,2 -0.36,2.93 a 14.82,14.82 0 0 0 -0.09,2.64 4.2,4.2 0 0 0 0.74,2.21 2,2 0 0 1 0.32,1 1.15,1.15 0 0 1 -0.4,0.93 l -2.88,2.67 a 1.43,1.43 0 0 1 -1,0.37 1.14,1.14 0 0 1 -0.95,-0.45 9.17,9.17 0 0 1 -1.78,-3.18 12.58,12.58 0 0 1 -0.52,-3.23 18.33,18.33 0 0 1 0.18,-3.16 c 0.15,-1 0.27,-2 0.37,-2.9 a 11.57,11.57 0 0 0 0,-2.49 3.25,3.25 0 0 0 -0.85,-1.91 3.89,3.89 0 0 0 -3.4,-1.25 7.07,7.07 0 0 0 -4.08,2 q -3.22,3 -1.77,7.61 a 2.89,2.89 0 0 1 0.18,1 1.29,1.29 0 0 1 -0.51,0.85 l -3.07,2.84 a 1.14,1.14 0 0 1 -0.8,0.32 1.07,1.07 0 0 1 -0.8,-0.38 7.9,7.9 0 0 1 -1.73,-3.43 12.54,12.54 0 0 1 -0.23,-4.43 15.16,15.16 0 0 1 1.38,-4.67 13.42,13.42 0 0 1 3.11,-4.17 z"
       style="fill:#8b5cf6"
       id="path92" /><g
       style="opacity:0.6"
       id="g93"><path
         d="m 68.81,149.88 a 1.36,1.36 0 0 1 1,-0.37 1.4,1.4 0 0 1 1,0.44 l 3.08,3.34 a 1.41,1.41 0 0 1 -0.08,2 l -3.26,3 a 1.41,1.41 0 0 1 -2,-0.08 l -3.08,-3.34 a 1.4,1.4 0 0 1 0.08,-2 z m -21.4,-20.15 a 16.73,16.73 0 0 1 3.92,-2.73 12.87,12.87 0 0 1 4.34,-1.3 10.31,10.31 0 0 1 4.31,0.44 9,9 0 0 1 3.83,2.55 9.22,9.22 0 0 1 2,3.07 10.84,10.84 0 0 1 0.64,3.13 18,18 0 0 1 -0.1,3.12 c -0.13,1 -0.25,2 -0.36,2.93 a 14.82,14.82 0 0 0 -0.09,2.64 4.2,4.2 0 0 0 0.74,2.21 2,2 0 0 1 0.32,1 1.15,1.15 0 0 1 -0.4,0.93 l -2.88,2.67 a 1.43,1.43 0 0 1 -1,0.37 1.14,1.14 0 0 1 -0.95,-0.45 9.17,9.17 0 0 1 -1.78,-3.18 12.58,12.58 0 0 1 -0.52,-3.23 18.33,18.33 0 0 1 0.18,-3.16 c 0.15,-1 0.27,-2 0.37,-2.9 a 11.57,11.57 0 0 0 0,-2.49 3.25,3.25 0 0 0 -0.85,-1.91 3.89,3.89 0 0 0 -3.4,-1.25 7.07,7.07 0 0 0 -4.08,2 q -3.22,3 -1.77,7.61 a 2.89,2.89 0 0 1 0.18,1 1.29,1.29 0 0 1 -0.51,0.85 l -3.07,2.84 a 1.14,1.14 0 0 1 -0.8,0.32 1.07,1.07 0 0 1 -0.8,-0.38 7.9,7.9 0 0 1 -1.73,-3.43 12.54,12.54 0 0 1 -0.23,-4.43 15.16,15.16 0 0 1 1.38,-4.67 13.42,13.42 0 0 1 3.11,-4.17 z"
         style="fill:#ffffff"
         id="path93" /></g></g></g></svg>
